<?xml version="1.0"?>
<svg xmlns="http://www.w3.org/2000/svg" xmlns:xlink="http://www.w3.org/1999/xlink" xmlns:svgjs="http://svgjs.com/svgjs" version="1.1" width="512" height="512" x="0" y="0" viewBox="0 0 64 64" style="enable-background:new 0 0 512 512" xml:space="preserve" class=""><g transform="matrix(1,0,0,1,0,0)"><g xmlns="http://www.w3.org/2000/svg" id="Icons"><g><g><g><path d="m16 32h24v28h-24z" fill="#1f75ff" data-original="#0082aa" style="" class=""/></g><g><path d="m31 40c0 5.97 3.737 11.068 9 13.081v-21.081h-6.49c-1.582 2.268-2.51 5.025-2.51 8z" fill="#005ef5" data-original="#00648c" style="" class=""/></g><g><path d="m24 20h-8v11c0 2.761 2.239 5 5 5h7l-4-4z" fill="#002f7a" data-original="#0a5078" style="" class=""/></g><g><path d="m32 20h8v11c0 2.761-2.239 5-5 5h-7l4-4z" fill="#002f7a" data-original="#0a5078" style="" class=""/></g><g><path d="m8 40v20h8v-28c-4.418 0-8 3.582-8 8z" fill="#1f75ff" data-original="#0082aa" style="" class=""/></g><g><path d="m40 32v28h8v-20c0-4.418-3.582-8-8-8z" fill="#1f75ff" data-original="#0082aa" style="" class=""/></g><g><path d="m24 26v6l4 4 4-4v-6z" fill="#fc6722" data-original="#d2aa82" style="" class=""/></g><g><path d="m18 16v5.667c0 4.602 3.731 8.333 8.333 8.333h3.333c4.603 0 8.334-3.731 8.334-8.333v-5.667z" fill="#fc834a" data-original="#f0c8a0" style="" class=""/></g><g><path d="m17 60v-17.5c0-.276-.224-.5-.5-.5s-.5.224-.5.5v17.5z" fill="#e0a500" data-original="#a00028" style="" class=""/></g><g><path d="m40 60v-17.5c0-.276-.224-.5-.5-.5s-.5.224-.5.5v17.5z" fill="#e0a500" data-original="#a00028" style="" class=""/></g></g><g><path d="m41 60h-28c-1.105 0-2-.895-2-2v-18c0-1.105.895-2 2-2h28c1.105 0 2 .895 2 2v18c0 1.105-.895 2-2 2z" fill="#005ef5" data-original="#00648c" style="" class=""/></g><g><path d="m18 16h20v4h-20z" fill="#fc6722" data-original="#d2aa82" style="" class=""/></g><g><path d="m40 18v13c0 2.761-2.239 5-5 5h-1c1.105 0 2-.895 2-2v-10c0-4.418-3.582-8-8-8-4.418 0-8 3.582-8 8v10c0 1.105.895 2 2 2h-1c-2.761 0-5-2.239-5-5v-13-2c0-6.627 5.373-12 12-12 6.627 0 12 5.373 12 12z" fill="#3a86ff" data-original="#00a0c8" style="" class=""/></g><g><path d="m36 29.276v6.724c0 1.105-.895 2-2 2h1c2.761 0 5-2.239 5-5v-6.081c-1.468.562-2.817 1.364-4 2.357z" fill="#1f75ff" data-original="#0082aa" style="" class=""/></g><g><path d="m42 60h-28c-1.105 0-2-.895-2-2v-18c0-1.105.895-2 2-2h28c1.105 0 2 .895 2 2v18c0 1.105-.895 2-2 2z" fill="#f0f0f0" data-original="#f0f0f0" style="" class=""/></g><g><path d="m42 59h-28c-1.105 0-2-.895-2-2v1c0 1.105.895 2 2 2h28c1.105 0 2-.895 2-2v-1c0 1.105-.895 2-2 2z" fill="#8338ec" data-original="#d2d2d2" style="" class=""/></g><g><path d="m42 38h-10.841c-.094.655-.159 1.319-.159 2 0 7.394 5.737 13.435 13 13.95v-13.95c0-1.105-.895-2-2-2z" fill="#8338ec" data-original="#d2d2d2" style="" class=""/></g><g><circle cx="28" cy="50" fill="#8338ec" r="4" data-original="#d2d2d2" style="" class=""/></g><g><circle cx="46" cy="40" fill="#ffbe0b" r="14" data-original="#c80a50" style="" class=""/></g><g><path d="m56 41c0-5.523-4.477-10-10-10s-10 4.477-10 10c0 3.272 1.571 6.176 4 8 0 1.104.896 2 2 2h8c1.104 0 2-.895 2-2 2.429-1.824 4-4.728 4-8z" fill="#e0a500" data-original="#a00028" style="" class=""/></g><g><path d="m56 40c0-5.523-4.477-10-10-10s-10 4.477-10 10c0 3.272 1.571 6.176 4 8 0 1.104.896 2 2 2h8c1.104 0 2-.895 2-2 2.429-1.824 4-4.728 4-8z" fill="#f0f0f0" data-original="#f0f0f0" style="" class=""/></g><g><path d="m44 41c0 1.657-1.343 3-3 3s-3-1.343-3-3 1.343-3 3-3z" fill="#002f7a" data-original="#0a5078" style="" class=""/></g><g><path d="m54 41c0 1.657-1.343 3-3 3s-3-1.343-3-3l3-3c1.657 0 3 1.343 3 3z" fill="#002f7a" data-original="#0a5078" style="" class=""/></g><g><path d="m45.567 44.514-1.07 1.854c-.192.333.048.75.433.75h2.141c.385 0 .625-.417.433-.75l-1.07-1.854c-.193-.333-.675-.333-.867 0z" fill="#002f7a" data-original="#0a5078" style="" class=""/></g></g></g></g></svg>
